<mxfile host="Electron" modified="2023-10-05T11:10:42.759Z" agent="Mozilla/5.0 (Macintosh; Intel Mac OS X 10_15_7) AppleWebKit/537.36 (KHTML, like Gecko) draw.io/22.0.2 Chrome/114.0.5735.289 Electron/25.8.4 Safari/537.36" etag="z577WbDTgG_fr9rXEkzi" version="22.0.2" type="device">
  <diagram name="Страница — 1" id="Im1ipqhpt82EnKc-YsLn">
    <mxGraphModel dx="1009" dy="749" grid="1" gridSize="10" guides="1" tooltips="1" connect="1" arrows="1" fold="1" page="1" pageScale="1" pageWidth="827" pageHeight="1169" math="0" shadow="0">
      <root>
        <mxCell id="0" />
        <mxCell id="1" parent="0" />
        <mxCell id="A7DEZniaGQUI35fXbSPs-15" value="" style="rounded=0;whiteSpace=wrap;html=1;" parent="1" vertex="1">
          <mxGeometry x="10" y="91" width="810" height="640" as="geometry" />
        </mxCell>
        <mxCell id="A7DEZniaGQUI35fXbSPs-2" value="" style="rounded=0;whiteSpace=wrap;html=1;" parent="1" vertex="1">
          <mxGeometry x="60" y="136" width="720" height="565" as="geometry" />
        </mxCell>
        <mxCell id="A7DEZniaGQUI35fXbSPs-9" value="" style="rounded=1;whiteSpace=wrap;html=1;" parent="1" vertex="1">
          <mxGeometry x="100" y="181" width="220" height="190" as="geometry" />
        </mxCell>
        <mxCell id="A7DEZniaGQUI35fXbSPs-10" value="service&lt;br&gt;type:ClusterIP&lt;br&gt;name:&amp;nbsp;react-app" style="text;html=1;strokeColor=none;fillColor=none;align=center;verticalAlign=middle;whiteSpace=wrap;rounded=0;" parent="1" vertex="1">
          <mxGeometry x="150" y="211" width="120" height="30" as="geometry" />
        </mxCell>
        <mxCell id="A7DEZniaGQUI35fXbSPs-11" value="selector&lt;br&gt;app.kubernetes.io/name:&amp;nbsp;react-app" style="text;html=1;strokeColor=none;fillColor=none;align=center;verticalAlign=middle;whiteSpace=wrap;rounded=0;" parent="1" vertex="1">
          <mxGeometry x="115" y="261" width="190" height="30" as="geometry" />
        </mxCell>
        <mxCell id="A7DEZniaGQUI35fXbSPs-12" value="ports&lt;br&gt;port: 3000&lt;br&gt;targetPort: http" style="text;html=1;strokeColor=none;fillColor=none;align=center;verticalAlign=middle;whiteSpace=wrap;rounded=0;" parent="1" vertex="1">
          <mxGeometry x="160" y="311" width="100" height="30" as="geometry" />
        </mxCell>
        <mxCell id="A7DEZniaGQUI35fXbSPs-13" value="namespace&lt;br&gt;labs" style="text;html=1;strokeColor=none;fillColor=none;align=center;verticalAlign=middle;whiteSpace=wrap;rounded=0;" parent="1" vertex="1">
          <mxGeometry x="345" y="151" width="60" height="30" as="geometry" />
        </mxCell>
        <mxCell id="A7DEZniaGQUI35fXbSPs-18" value="minikube node" style="text;html=1;strokeColor=none;fillColor=none;align=center;verticalAlign=middle;whiteSpace=wrap;rounded=0;" parent="1" vertex="1">
          <mxGeometry x="329" y="101" width="110" height="30" as="geometry" />
        </mxCell>
        <mxCell id="Rpb3NorsBrquQk5KyYfB-6" value="" style="rounded=1;whiteSpace=wrap;html=1;" vertex="1" parent="1">
          <mxGeometry x="400" y="181" width="350" height="490" as="geometry" />
        </mxCell>
        <mxCell id="Rpb3NorsBrquQk5KyYfB-4" value="" style="rounded=1;whiteSpace=wrap;html=1;" vertex="1" parent="1">
          <mxGeometry x="430.5" y="231" width="285" height="402" as="geometry" />
        </mxCell>
        <mxCell id="Rpb3NorsBrquQk5KyYfB-1" value="" style="rounded=1;whiteSpace=wrap;html=1;" vertex="1" parent="1">
          <mxGeometry x="463" y="448" width="220" height="150" as="geometry" />
        </mxCell>
        <mxCell id="Rpb3NorsBrquQk5KyYfB-2" value="label&lt;br&gt;app.kubernetes.io/name:&amp;nbsp;react-app" style="text;html=1;strokeColor=none;fillColor=none;align=center;verticalAlign=middle;whiteSpace=wrap;rounded=0;" vertex="1" parent="1">
          <mxGeometry x="478" y="528" width="190" height="30" as="geometry" />
        </mxCell>
        <mxCell id="Rpb3NorsBrquQk5KyYfB-3" value="pod&lt;br&gt;name:&amp;nbsp;react-app" style="text;html=1;strokeColor=none;fillColor=none;align=center;verticalAlign=middle;whiteSpace=wrap;rounded=0;" vertex="1" parent="1">
          <mxGeometry x="513" y="478" width="120" height="30" as="geometry" />
        </mxCell>
        <mxCell id="A7DEZniaGQUI35fXbSPs-3" value="" style="rounded=1;whiteSpace=wrap;html=1;" parent="1" vertex="1">
          <mxGeometry x="463" y="278" width="220" height="150" as="geometry" />
        </mxCell>
        <mxCell id="A7DEZniaGQUI35fXbSPs-4" value="pod&lt;br&gt;name:&amp;nbsp;react-app" style="text;html=1;strokeColor=none;fillColor=none;align=center;verticalAlign=middle;whiteSpace=wrap;rounded=0;" parent="1" vertex="1">
          <mxGeometry x="513" y="308" width="120" height="30" as="geometry" />
        </mxCell>
        <mxCell id="A7DEZniaGQUI35fXbSPs-5" value="label&lt;br&gt;app.kubernetes.io/name:&amp;nbsp;react-app" style="text;html=1;strokeColor=none;fillColor=none;align=center;verticalAlign=middle;whiteSpace=wrap;rounded=0;" parent="1" vertex="1">
          <mxGeometry x="478" y="358" width="190" height="30" as="geometry" />
        </mxCell>
        <mxCell id="Rpb3NorsBrquQk5KyYfB-5" value="ReplicaSet" style="text;html=1;strokeColor=none;fillColor=none;align=center;verticalAlign=middle;whiteSpace=wrap;rounded=0;" vertex="1" parent="1">
          <mxGeometry x="543" y="239" width="60" height="30" as="geometry" />
        </mxCell>
        <mxCell id="Rpb3NorsBrquQk5KyYfB-7" value="Deployment" style="text;html=1;strokeColor=none;fillColor=none;align=center;verticalAlign=middle;whiteSpace=wrap;rounded=0;" vertex="1" parent="1">
          <mxGeometry x="543" y="191" width="60" height="30" as="geometry" />
        </mxCell>
        <mxCell id="Rpb3NorsBrquQk5KyYfB-9" style="edgeStyle=orthogonalEdgeStyle;rounded=0;orthogonalLoop=1;jettySize=auto;html=1;exitX=1;exitY=0.5;exitDx=0;exitDy=0;entryX=0;entryY=0.5;entryDx=0;entryDy=0;" edge="1" parent="1" source="A7DEZniaGQUI35fXbSPs-11" target="Rpb3NorsBrquQk5KyYfB-2">
          <mxGeometry relative="1" as="geometry">
            <Array as="points">
              <mxPoint x="360" y="276" />
              <mxPoint x="360" y="543" />
            </Array>
          </mxGeometry>
        </mxCell>
        <mxCell id="Rpb3NorsBrquQk5KyYfB-8" style="edgeStyle=orthogonalEdgeStyle;rounded=0;orthogonalLoop=1;jettySize=auto;html=1;exitX=1;exitY=0.5;exitDx=0;exitDy=0;entryX=0;entryY=0.5;entryDx=0;entryDy=0;" edge="1" parent="1" source="A7DEZniaGQUI35fXbSPs-11" target="A7DEZniaGQUI35fXbSPs-5">
          <mxGeometry relative="1" as="geometry">
            <Array as="points">
              <mxPoint x="360" y="276" />
              <mxPoint x="360" y="373" />
            </Array>
          </mxGeometry>
        </mxCell>
      </root>
    </mxGraphModel>
  </diagram>
</mxfile>
